<?xml version="1.0" encoding="utf-8"?>
<!-- Generator: Adobe Illustrator 22.0.1, SVG Export Plug-In . SVG Version: 6.00 Build 0)  -->
<svg version="1.1" id="Layer_1" xmlns="http://www.w3.org/2000/svg" xmlns:xlink="http://www.w3.org/1999/xlink" x="0px" y="0px"
	 viewBox="0 0 14 14" style="enable-background:new 0 0 14 14;" xml:space="preserve">
<style type="text/css">
	.st0{fill:#FFFFFF;}
</style>
<g id="Layer_x0020_1">
	<path class="st0" d="M11.1,7.6V6.4c0-0.2-0.1-0.3-0.2-0.4c-0.1-0.1-0.3-0.2-0.4-0.2H8.2V3.5c0-0.2-0.1-0.3-0.2-0.4
		C7.9,3,7.7,2.9,7.6,2.9H6.4C6.3,2.9,6.1,3,6,3.1C5.9,3.2,5.8,3.3,5.8,3.5v2.3H3.5C3.3,5.8,3.2,5.9,3.1,6C3,6.1,2.9,6.3,2.9,6.4v1.2
		C2.9,7.7,3,7.9,3.1,8c0.1,0.1,0.3,0.2,0.4,0.2h2.3v2.3c0,0.2,0.1,0.3,0.2,0.4c0.1,0.1,0.3,0.2,0.4,0.2h1.2c0.2,0,0.3-0.1,0.4-0.2
		c0.1-0.1,0.2-0.3,0.2-0.4V8.2h2.3c0.2,0,0.3-0.1,0.4-0.2C11,7.9,11.1,7.7,11.1,7.6z M13.1,3.5C13.7,4.6,14,5.7,14,7
		c0,1.3-0.3,2.4-0.9,3.5c-0.6,1.1-1.5,1.9-2.5,2.5C9.4,13.7,8.3,14,7,14c-1.3,0-2.4-0.3-3.5-0.9c-1.1-0.6-1.9-1.5-2.5-2.5
		C0.3,9.4,0,8.3,0,7c0-1.3,0.3-2.4,0.9-3.5c0.6-1.1,1.5-1.9,2.5-2.5C4.6,0.3,5.7,0,7,0c1.3,0,2.4,0.3,3.5,0.9
		C11.6,1.6,12.4,2.4,13.1,3.5z"/>
</g>
</svg>
