<?xml version="1.0" encoding="utf-8"?>
<!-- Generator: Adobe Illustrator 22.0.1, SVG Export Plug-In . SVG Version: 6.00 Build 0)  -->
<svg version="1.1" id="Layer_1" xmlns="http://www.w3.org/2000/svg" xmlns:xlink="http://www.w3.org/1999/xlink" x="0px" y="0px"
	 viewBox="0 0 19 22" style="enable-background:new 0 0 19 22;" xml:space="preserve">
<style type="text/css">
	.st0{fill:#FFFFFF;}
</style>
<g id="Layer_x0020_1">
	<path class="st0" d="M18.1,5.8c0.1,0.1,0.2,0.3,0.3,0.4h-5.8V0.5c0.2,0.1,0.3,0.2,0.4,0.3L18.1,5.8z M12.2,7.9h6.7v13
		c0,0.3-0.1,0.6-0.3,0.8c-0.2,0.2-0.5,0.3-0.8,0.3H1.2c-0.3,0-0.6-0.1-0.8-0.3c-0.2-0.2-0.3-0.5-0.3-0.8V1.2c0-0.3,0.1-0.6,0.3-0.8
		C0.6,0.1,0.9,0,1.2,0h9.8v6.7c0,0.3,0.1,0.6,0.3,0.8C11.6,7.7,11.9,7.9,12.2,7.9z M14.2,16.9v-0.8c0-0.1,0-0.2-0.1-0.3
		c-0.1-0.1-0.2-0.1-0.3-0.1H5.2c-0.1,0-0.2,0-0.3,0.1c-0.1,0.1-0.1,0.2-0.1,0.3v0.8c0,0.1,0,0.2,0.1,0.3c0.1,0.1,0.2,0.1,0.3,0.1
		h8.6c0.1,0,0.2,0,0.3-0.1C14.2,17.1,14.2,17,14.2,16.9z M14.2,13.8V13c0-0.1,0-0.2-0.1-0.3c-0.1-0.1-0.2-0.1-0.3-0.1H5.2
		c-0.1,0-0.2,0-0.3,0.1c-0.1,0.1-0.1,0.2-0.1,0.3v0.8c0,0.1,0,0.2,0.1,0.3c0.1,0.1,0.2,0.1,0.3,0.1h8.6c0.1,0,0.2,0,0.3-0.1
		C14.2,14,14.2,13.9,14.2,13.8z M14.2,10.6V9.8c0-0.1,0-0.2-0.1-0.3c-0.1-0.1-0.2-0.1-0.3-0.1H5.2c-0.1,0-0.2,0-0.3,0.1
		C4.8,9.6,4.8,9.7,4.8,9.8v0.8c0,0.1,0,0.2,0.1,0.3C5,11,5.1,11,5.2,11h8.6c0.1,0,0.2,0,0.3-0.1C14.2,10.8,14.2,10.7,14.2,10.6z"/>
</g>
</svg>
