<?xml version="1.0" encoding="utf-8"?>
<!-- Generator: Adobe Illustrator 22.0.1, SVG Export Plug-In . SVG Version: 6.00 Build 0)  -->
<svg version="1.1" id="Layer_1" xmlns="http://www.w3.org/2000/svg" xmlns:xlink="http://www.w3.org/1999/xlink" x="0px" y="0px"
	 viewBox="0 0 14 14" style="enable-background:new 0 0 14 14;" xml:space="preserve">
<style type="text/css">
	.st0{fill:#999999;}
</style>
<g id="Layer_x0020_1">
	<path class="st0" d="M12,7c0-1-0.3-1.9-0.8-2.7l-6.9,6.8C5.1,11.7,6,12,7,12c0.7,0,1.3-0.1,1.9-0.4c0.6-0.3,1.1-0.6,1.6-1.1
		c0.4-0.4,0.8-1,1.1-1.6C11.8,8.3,12,7.7,12,7z M2.9,9.7l6.9-6.8C8.9,2.3,8,2,7,2C6.1,2,5.3,2.3,4.5,2.7c-0.8,0.4-1.4,1-1.8,1.8
		C2.3,5.3,2,6.1,2,7C2,8,2.3,8.9,2.9,9.7z M13.4,4.3C13.8,5.1,14,6,14,7c0,1-0.2,1.9-0.6,2.7c-0.4,0.9-0.9,1.6-1.5,2.2
		c-0.6,0.6-1.4,1.1-2.2,1.5C8.9,13.8,7.9,14,7,14c-0.9,0-1.9-0.2-2.7-0.6C3.4,13.1,2.7,12.6,2,12c-0.6-0.6-1.1-1.4-1.5-2.2
		C0.2,8.9,0,7.9,0,7C0,6,0.2,5.1,0.6,4.3C0.9,3.4,1.4,2.7,2,2c0.6-0.6,1.4-1.1,2.2-1.5C5.1,0.2,6.1,0,7,0c1,0,1.9,0.2,2.7,0.6
		C10.6,0.9,11.3,1.4,12,2C12.6,2.7,13.1,3.4,13.4,4.3z"/>
</g>
</svg>
