<?xml version="1.0" encoding="utf-8"?>
<!-- Generator: Adobe Illustrator 22.0.1, SVG Export Plug-In . SVG Version: 6.00 Build 0)  -->
<svg version="1.1" id="Layer_1" xmlns="http://www.w3.org/2000/svg" xmlns:xlink="http://www.w3.org/1999/xlink" x="0px" y="0px"
	 viewBox="0 0 14 14" style="enable-background:new 0 0 14 14;" xml:space="preserve">
<style type="text/css">
	.st0{fill:#005EA5;}
</style>
<g id="Layer_x0020_1">
	<path class="st0" d="M11.7,5.5c0-0.2-0.1-0.3-0.2-0.4l-0.8-0.8c-0.1-0.1-0.3-0.2-0.4-0.2c-0.2,0-0.3,0.1-0.4,0.2L6.2,8L4.1,5.9
		C4,5.8,3.9,5.8,3.7,5.8S3.4,5.8,3.3,5.9L2.5,6.8C2.4,6.9,2.3,7,2.3,7.2c0,0.2,0.1,0.3,0.2,0.4l3.3,3.3C5.9,11,6,11.1,6.2,11.1
		c0.2,0,0.3-0.1,0.4-0.2l5-5C11.6,5.8,11.7,5.7,11.7,5.5z M13.1,3.5C13.7,4.6,14,5.7,14,7c0,1.3-0.3,2.4-0.9,3.5
		c-0.6,1.1-1.5,1.9-2.5,2.5C9.4,13.7,8.3,14,7,14c-1.3,0-2.4-0.3-3.5-0.9c-1.1-0.6-1.9-1.5-2.5-2.5S0,8.3,0,7c0-1.3,0.3-2.4,0.9-3.5
		s1.5-1.9,2.5-2.5C4.6,0.3,5.7,0,7,0c1.3,0,2.4,0.3,3.5,0.9C11.6,1.6,12.4,2.4,13.1,3.5z"/>
</g>
</svg>
